<svg xmlns="http://www.w3.org/2000/svg" width="1501" height="553" viewBox="0 0 1501 553" fill="none"> <path d="M1500.39 51.8784L1073.88 51.8785L1025.12 22.2416L990.33 22.2416M1500.39 83.2721L929.368 83.2722L918.991 74.5645H887.633M1500.39 104.201L859.784 104.201L842.388 83.2722L713.52 83.2722M1500.39 121.77L851.086 121.77L837.123 111.152L800.576 111.152M1500.39 139.414L783.18 139.414L741.369 104.201L666.52 104.201L600.827 38.3586H579.463M579.463 38.3586L560.999 19.8737L530.785 19.8737M579.463 38.3586L551.233 38.3587M1489.93 67.5371L958.971 67.5372L929.368 37.06L811.029 37.06M1500.39 163.246L765.937 163.246L731.145 124.137L631.88 124.137L595.334 85.5637M1500.39 205.41L741.598 205.41L700.473 164.315L588.39 164.315M1500.39 227.103L705.051 227.103M705.051 227.103L673.692 194.029L546.579 194.029L530.785 184.862V163.246M705.051 227.103H651.031L631.88 205.41L523.994 205.41L489.507 170.884V124.443M1500.39 260.253L588.39 260.253L572.749 249.789H543.145M518.729 86.7095C518.729 89.7648 516.211 92.2855 513.159 92.2855C510.107 92.2855 507.589 89.7648 507.589 86.7095C507.589 83.6541 510.107 81.1335 513.159 81.1335C516.211 81.1335 518.729 83.6541 518.729 86.7095ZM518.729 86.7095L537.651 86.7095L555.047 104.201L612.958 104.201M675.751 60.2807C675.751 63.3361 673.234 65.8567 670.182 65.8567C667.13 65.8567 664.612 63.3361 664.612 60.2807C664.612 57.2254 667.13 54.7047 670.182 54.7047C673.234 54.7047 675.751 57.2254 675.751 60.2807ZM675.751 60.2807L824.915 60.2807L846.736 38.3586M1500.39 182.113L749.304 182.113L715.351 148.122L606.168 148.122L597.851 139.873M862.988 37.0601L845.516 19.5682L690.477 19.5683L678.498 7.57602L641.723 7.57602M1500.23 501.396L1073.72 501.396L1024.97 531.033H990.102M1500.23 470.003L929.215 470.003L918.763 478.71H887.404M1500.23 449.074L859.555 449.074L842.159 470.003H713.367M1500.23 431.505L850.857 431.505L836.971 442.123H800.347M1500.23 413.861L782.951 413.861L741.216 449.074L666.367 449.074L600.598 514.916H579.311M579.311 514.916L560.77 533.401H530.556M579.311 514.916H551.004M530.556 533.401C530.556 528.513 526.588 524.541 521.705 524.541C516.822 524.541 512.854 528.513 512.854 533.401C512.854 538.29 516.822 542.262 521.705 542.262C526.588 542.262 530.556 538.29 530.556 533.401ZM1489.78 485.738L958.818 485.738L929.215 516.215H810.8M810.8 516.215C810.8 513.618 808.664 511.479 806.07 511.479C803.475 511.479 801.339 513.618 801.339 516.215C801.339 518.888 803.475 520.951 806.07 520.951C808.664 520.951 810.8 518.812 810.8 516.215ZM1496.72 381.856L762.275 381.856L727.406 420.964H628.218L591.672 459.462M1498.25 336.331L713.138 336.331L670.64 377.502H554.59M1500.77 317.77L679.719 317.77M679.719 317.77L647.369 350.844L516.212 350.844L499.808 360.01V381.627M679.719 317.77H624.021L604.26 339.463H492.864L457.233 373.988L457.233 420.506M1500.23 293.022L471.044 293.022L453.419 303.486H420M514.991 458.392C514.991 455.337 512.473 452.816 509.421 452.816C506.369 452.816 503.852 455.337 503.852 458.392C503.852 461.448 506.369 463.968 509.421 463.968C512.473 463.968 514.991 461.448 514.991 458.392ZM514.991 458.392H533.913L551.385 440.901H609.296M675.599 492.994C675.599 489.939 673.082 487.418 670.03 487.418C666.978 487.418 664.46 489.939 664.46 492.994C664.46 496.05 666.978 498.57 670.03 498.57C673.082 498.57 675.599 496.05 675.599 492.994ZM675.599 492.994H824.686L846.584 514.916M1499.7 360.01L748.541 360.01L714.588 394.001H605.405L597.165 402.25M862.835 516.215L845.286 533.707H690.248L678.269 545.699H641.493M13.9026 303.486C13.9026 300.584 11.2322 298.216 7.95136 298.216C4.6705 298.216 2 300.584 2 303.486C2 306.389 4.6705 308.757 7.95136 308.757C11.2322 308.757 13.9026 306.389 13.9026 303.486ZM806.162 43.2829C802.747 42.7546 800.406 39.555 800.934 36.1362C801.461 32.7175 804.657 30.3743 808.072 30.9025C811.487 31.4307 813.828 34.6304 813.3 38.0491C812.773 41.4678 809.577 43.8111 806.162 43.2829ZM889.997 74.5645C889.997 77.6962 887.479 80.2169 884.351 80.2169C881.223 80.2169 878.705 77.6962 878.705 74.5645C878.705 71.4327 881.223 68.9121 884.351 68.9121C887.479 68.9121 889.997 71.4327 889.997 74.5645ZM990.33 22.1652C990.33 26.5191 986.82 30.0327 982.471 30.0327C978.122 30.0327 974.612 26.5191 974.612 22.1652C974.612 17.8114 978.122 14.2977 982.471 14.2977C986.82 14.2977 990.33 17.8877 990.33 22.1652ZM714.74 83.2722C714.74 86.3275 712.222 88.8482 709.17 88.8482C706.118 88.8482 703.6 86.3275 703.6 83.2722C703.6 80.2168 706.118 77.6962 709.17 77.6962C712.222 77.6962 714.74 80.2168 714.74 83.2722ZM536.278 160.038C536.278 163.093 533.76 165.614 530.708 165.614C527.656 165.614 525.139 163.093 525.139 160.038C525.139 156.982 527.656 154.462 530.708 154.462C533.837 154.462 536.278 156.982 536.278 160.038ZM600.903 135.06C600.903 138.116 598.385 140.636 595.333 140.636C592.281 140.636 589.763 138.116 589.763 135.06C589.763 132.005 592.281 129.484 595.333 129.484C598.385 129.484 600.903 132.005 600.903 135.06ZM555.353 38.3586C555.353 41.4139 552.835 43.9346 549.783 43.9346C546.731 43.9346 544.213 41.4139 544.213 38.3586C544.213 35.3032 546.731 32.7826 549.783 32.7826C552.911 32.8589 555.353 35.3032 555.353 38.3586ZM645.918 7.57599C645.918 10.6313 643.401 13.152 640.349 13.152C637.297 13.152 634.779 10.6313 634.779 7.57599C634.779 4.52065 637.297 2 640.349 2C643.401 2 645.918 4.52065 645.918 7.57599ZM801.644 111.152C801.644 114.131 799.202 116.499 796.303 116.499C793.327 116.499 790.962 114.055 790.962 111.152C790.962 108.173 793.404 105.805 796.303 105.805C799.202 105.729 801.644 108.173 801.644 111.152ZM531.471 20.4848C531.471 24.4568 528.266 27.6649 524.299 27.6649C520.331 27.6649 517.127 24.4568 517.127 20.4848C517.127 16.5129 520.331 13.3048 524.299 13.3048C528.266 13.3048 531.471 16.5129 531.471 20.4848ZM483.251 118.714C483.251 115.255 486.052 112.451 489.507 112.451C492.962 112.451 495.764 115.255 495.764 118.714C495.764 122.173 492.962 124.978 489.507 124.978C486.052 124.978 483.251 122.173 483.251 118.714ZM536.48 255.401C533.405 254.672 531.502 251.585 532.231 248.506C532.959 245.427 536.043 243.522 539.118 244.252C542.194 244.981 544.096 248.068 543.368 251.147C542.639 254.226 539.556 256.13 536.48 255.401ZM590.069 164.315C590.069 167.6 587.398 170.35 584.041 170.35C580.684 170.35 578.014 167.676 578.014 164.315C578.014 161.031 580.684 158.281 584.041 158.281C587.398 158.281 590.069 160.954 590.069 164.315ZM598.309 83.3486C598.309 85.7929 596.325 87.7024 593.96 87.7024C591.518 87.7024 589.611 85.7165 589.611 83.3486C589.611 80.9807 591.595 78.9947 593.96 78.9947C596.325 78.9947 598.309 80.9807 598.309 83.3486ZM887.861 478.405C887.861 474.586 884.733 471.454 880.918 471.454C877.103 471.454 873.975 474.586 873.975 478.405C873.975 482.224 877.103 485.356 880.918 485.356C884.733 485.356 887.861 482.301 887.861 478.405ZM990.101 531.11C990.101 526.756 986.591 523.242 982.242 523.242C977.893 523.242 974.383 526.756 974.383 531.11C974.383 535.464 977.893 538.977 982.242 538.977C986.591 538.901 990.101 535.387 990.101 531.11ZM704.737 473.592C702.763 471.23 703.074 467.714 705.433 465.737C707.792 463.76 711.304 464.072 713.279 466.433C715.253 468.795 714.942 472.311 712.583 474.288C710.225 476.265 706.712 475.953 704.737 473.592ZM494.085 386.286C494.085 383.207 496.647 380.71 499.808 380.71C502.968 380.71 505.53 383.207 505.53 386.286C505.53 389.366 502.968 391.862 499.808 391.862C496.647 391.862 494.085 389.366 494.085 386.286ZM600.14 407.063C600.14 404.007 597.622 401.487 594.57 401.487C591.518 401.487 589.001 404.007 589.001 407.063C589.001 410.118 591.518 412.639 594.57 412.639C597.699 412.639 600.14 410.118 600.14 407.063ZM550.927 514.916C550.927 511.861 548.409 509.34 545.357 509.34C542.305 509.34 539.788 511.861 539.788 514.916C539.788 517.972 542.305 520.492 545.357 520.492C548.486 520.416 550.927 517.972 550.927 514.916ZM645.69 545.699C645.69 542.644 643.172 540.123 640.12 540.123C637.069 540.123 634.551 542.644 634.551 545.699C634.551 548.754 637.069 551.275 640.12 551.275C643.172 551.275 645.69 548.754 645.69 545.699ZM801.263 442.123C801.263 439.22 798.897 436.852 795.998 436.852C793.099 436.852 790.733 439.22 790.733 442.123C790.733 445.025 793.099 447.393 795.998 447.393C798.897 447.47 801.263 445.102 801.263 442.123ZM463.414 425.471C463.414 422.187 460.667 419.437 457.233 419.437C453.8 419.437 451.053 422.11 451.053 425.471C451.053 428.756 453.8 431.505 457.233 431.505C460.667 431.505 463.414 428.832 463.414 425.471ZM558.557 377.502C558.557 373.454 555.123 370.169 550.927 370.169C546.731 370.169 543.297 373.454 543.297 377.502C543.297 381.551 546.731 384.835 550.927 384.835C555.123 384.835 558.557 381.551 558.557 377.502ZM596.554 463.892C596.554 459.767 593.196 456.406 589.076 456.406C584.956 456.406 581.599 459.767 581.599 463.892C581.599 468.017 584.956 471.378 589.076 471.378C593.196 471.378 596.554 468.017 596.554 463.892Z" stroke="url(#paint0_linear)" strokeWidth="3" strokeMiterlimit="10"/> <defs> <linearGradient id="paint0_linear" x1="1443" y1="487.5" x2="675.562" y2="503.784" gradientUnits="userSpaceOnUse"> <stop stopColor="#FFF" stopOpacity="0.12"/> <stop offset="1" stopColor="#FFF" stopOpacity="0.25"/> </linearGradient> </defs> </svg>